<svg xmlns="http://www.w3.org/2000/svg" width="561" height="500" viewBox="0 0 561 500" fill="none">
<g clip-path="url(#clip0_1505_47595)">
<path d="M31.4976 433.748C37.7665 433.748 47.2617 436.372 53.2753 442.14C53.8777 442.712 54.6639 443.039 55.5113 442.988C56.3383 442.947 57.1245 442.579 57.6758 441.957L63.2504 435.647C64.3633 434.391 64.251 432.472 62.9952 431.349C53.1835 422.548 39.8901 419.434 31.4874 419.434C16.6728 419.434 0.724904 426.856 0.724904 443.161C0.724904 458.344 16.3461 462.805 30.2316 466.777C37.6338 468.829 48.8136 471.933 48.8136 476.436C48.8136 483.756 38.1545 485.696 32.5186 485.696C26.8827 485.696 17.6938 483.552 10.9552 477.528C9.76068 476.456 7.9331 476.497 6.78959 477.62L0.929102 483.337C0.326717 483.899 0 484.695 0 485.522C0 486.349 0.336927 487.136 0.929102 487.718C9.73005 496.212 23.1357 500.01 32.5186 500.01C47.8028 500.01 63.2811 491.914 63.2811 476.425C63.2811 460.937 47.5374 456.455 33.6315 452.524L33.315 452.442C24.759 450.063 15.0596 447.368 15.0596 443.161C15.0596 435.739 25.3921 433.758 31.4976 433.758V433.748Z" fill="#FF6002"/>
<path d="M162.94 475.241C162.338 474.669 161.511 474.332 160.694 474.404C159.867 474.444 159.081 474.822 158.529 475.445C153.077 481.673 145.716 485.4 138.835 485.4C126.215 485.4 115.944 475.455 115.944 463.244V456.056C115.944 443.917 126.215 434.044 138.835 434.044C145.716 434.044 153.077 437.76 158.529 443.988C159.081 444.611 159.857 444.989 160.694 445.03C161.511 445.081 162.338 444.764 162.94 444.192L169.097 438.332C170.281 437.199 170.373 435.33 169.281 434.105C161.102 424.834 149.729 419.291 138.845 419.291C118.159 419.291 101.344 435.79 101.344 456.056V463.244C101.344 483.521 118.17 500.02 138.845 500.02C149.667 500.02 161.041 494.548 169.27 485.379C170.373 484.154 170.302 482.265 169.107 481.132L162.95 475.261L162.94 475.241Z" fill="#FF6002"/>
<path d="M239.157 420.455C233.164 420.455 227.048 422.323 221.688 425.703V392.143C221.688 390.458 220.32 389.09 218.635 389.09H210.13C208.446 389.09 207.078 390.458 207.078 392.143V496.958C207.078 498.642 208.446 500.01 210.13 500.01H218.635C220.32 500.01 221.688 498.652 221.688 496.968L221.831 451.656C221.831 442.508 229.601 435.075 239.147 435.075C248.693 435.075 256.616 442.518 256.616 451.656V496.958C256.616 498.642 257.984 500.01 259.669 500.01H268.021C269.705 500.01 271.073 498.642 271.073 496.958V451.656C271.073 434.749 256.453 420.455 239.137 420.455H239.157Z" fill="#FF6002"/>
<path d="M558.013 493.18L555.379 485.41C555.113 484.624 554.541 483.981 553.796 483.634C553.051 483.276 552.193 483.246 551.417 483.532C548.079 484.777 545.271 485.39 542.81 485.39C536.317 485.39 533.55 482.49 533.55 475.69V392.132C533.55 390.448 532.182 389.08 530.497 389.08H521.992C520.308 389.08 518.939 390.448 518.939 392.132V475.69C518.939 491.138 527.638 500 542.81 500C546.404 500 550.662 498.703 555.603 497.203L556.012 497.08C556.808 496.835 557.461 496.284 557.839 495.549C558.217 494.813 558.278 493.956 558.013 493.17V493.18Z" fill="#FF6002"/>
<path d="M348.475 419.362C359.216 419.362 369.303 423.538 376.899 431.134L395.063 449.298L413.226 431.145C420.812 423.548 430.91 419.373 441.65 419.373C443.427 419.373 444.877 420.822 444.877 422.599V430.665C444.877 432.441 443.427 433.891 441.65 433.891C434.789 433.891 428.337 436.566 423.487 441.416L405.334 459.569L423.487 477.732C428.337 482.582 434.789 485.257 441.65 485.257C455.812 485.257 467.328 473.74 467.328 459.579C467.328 457.803 468.778 456.353 470.555 456.353H478.621C480.397 456.353 481.847 457.803 481.847 459.579C481.847 481.745 463.816 499.776 441.65 499.776C430.91 499.776 420.812 495.59 413.226 488.004L395.063 469.85L376.899 488.004C369.313 495.6 359.216 499.776 348.475 499.776C326.309 499.776 308.278 481.745 308.278 459.579C308.278 437.413 326.309 419.383 348.475 419.383V419.362ZM348.475 485.237C355.336 485.237 361.788 482.562 366.638 477.712L384.791 459.549L366.638 441.385C361.788 436.535 355.336 433.871 348.475 433.871C334.314 433.871 322.797 445.387 322.797 459.549C322.797 473.71 334.314 485.226 348.475 485.226V485.237Z" fill="#FF6002"/>
<path fill-rule="evenodd" clip-rule="evenodd" d="M35.3573 324.277C36.1026 322.991 35.7657 321.857 34.3159 320.908L31.7634 319.07C30.5484 318.223 29.4559 318.519 28.435 319.958C28.2205 320.357 27.8734 320.908 27.3935 321.572C26.9545 322.276 26.3521 322.991 25.5864 323.726C24.1059 325.39 21.8598 326.258 18.8376 326.34C15.7032 326.268 13.2834 325.165 11.5375 323.062C9.82228 320.979 8.98506 318.611 8.98506 315.987V297.925C8.98506 295.179 9.83249 292.78 11.5375 290.738C13.2834 288.716 15.7134 287.654 18.8376 287.573C20.3895 287.573 21.7577 287.777 22.9318 288.236C24.0447 288.818 24.9738 289.482 25.6987 290.186C26.4644 290.85 27.0668 291.565 27.5059 292.341C27.9653 293.004 28.2716 293.607 28.4247 294.178C29.3641 295.424 30.4769 295.618 31.7532 294.73L34.4282 292.8C35.1225 292.269 35.5002 291.667 35.5819 290.962C35.5819 290.38 35.4287 289.849 35.1429 289.41C34.7345 288.124 33.3153 286.215 30.8751 283.631C29.6806 282.519 28.0878 281.528 26.0867 280.732C24.0549 279.956 21.6454 279.578 18.8376 279.578C13.3243 279.65 8.88297 281.487 5.55453 285.071C2.13421 288.634 0.418945 292.933 0.418945 297.997V315.966C0.418945 320.959 2.13421 325.227 5.53411 328.78C8.88297 332.394 13.3039 334.252 18.8172 334.324C21.5433 334.252 23.9324 333.813 25.9642 332.996C27.9653 332.22 29.5989 331.291 30.8649 330.178C32.2126 329.045 33.2438 327.902 33.9789 326.768C34.6324 325.727 35.0918 324.89 35.3471 324.267L35.3573 324.277ZM167.412 299.14C167.341 294.066 165.666 289.768 162.399 286.215C159.132 282.641 154.67 280.803 149.004 280.722C143.531 280.793 139.09 282.631 135.721 286.215C132.3 289.778 130.585 294.076 130.585 299.14V317.11C130.585 322.113 132.29 326.37 135.721 329.923C139.08 333.538 143.521 335.396 149.004 335.467C153.69 335.396 157.478 334.314 160.398 332.21C161.879 331.148 163.104 330.066 164.084 328.974C165.023 327.84 165.85 326.717 166.544 325.655C166.912 325.125 167.106 324.543 167.106 323.879C167.024 323.256 166.647 322.664 165.952 322.153L163.492 320.316C162.971 319.877 162.44 319.693 161.858 319.764C161.164 319.836 160.592 320.183 160.163 320.765C159.244 322.133 157.897 323.562 156.11 325.084C154.262 326.595 151.883 327.391 148.963 327.473C145.829 327.401 143.409 326.299 141.694 324.175C139.988 322.092 139.141 319.724 139.141 317.079V314.333C139.141 312.648 139.968 311.811 141.602 311.811H162.491C165.697 311.811 167.331 310.147 167.412 306.828V299.12V299.14ZM158.856 301.887C158.856 303.551 158.029 304.388 156.396 304.388H141.602C139.968 304.388 139.141 303.551 139.141 301.887V299.14C139.141 296.363 140.009 293.954 141.714 291.912C143.429 289.849 145.869 288.787 148.994 288.716C152.128 288.787 154.568 289.849 156.273 291.912C157.989 293.954 158.846 296.363 158.846 299.14V301.887H158.856ZM297.538 317.314C297.456 312.015 295.649 308.094 292.075 305.552C288.553 303.071 284.234 301.744 279.099 301.591C278.884 301.662 277.383 301.284 274.637 300.437C273.422 299.978 272.431 299.263 271.635 298.262C270.635 297.374 270.155 296.128 270.155 294.536C270.155 293.076 270.788 291.565 272.054 289.951C273.34 288.359 275.688 287.532 279.109 287.45C281.876 287.45 284.357 288.512 286.582 290.615C287.716 291.616 288.869 291.728 290.084 290.952L292.759 289.002C294.066 288.052 294.179 286.939 293.086 285.673C291.585 283.948 289.748 282.498 287.512 281.283C285.184 280.221 282.396 279.66 279.109 279.578C273.442 279.65 269.175 281.242 266.285 284.346C263.386 287.399 261.926 290.819 261.926 294.628C262.079 303.622 267.806 308.615 279.129 309.626C279.364 309.554 280.998 309.851 284.05 310.514C285.337 310.933 286.491 311.688 287.552 312.791C288.492 313.945 288.972 315.456 288.972 317.355C288.972 319.57 288.226 321.592 286.746 323.409C285.245 325.298 282.713 326.268 279.139 326.34C276.597 326.34 274.351 325.584 272.431 324.063C270.563 322.623 269.011 321.071 267.725 319.407C266.939 318.192 265.856 317.967 264.519 318.743L261.946 320.581C260.659 321.602 260.425 322.776 261.231 324.063C262.579 326.35 264.713 328.586 267.612 330.75C270.512 332.986 274.361 334.181 279.129 334.324C285.01 334.252 289.543 332.588 292.739 329.341C295.945 326.166 297.548 322.143 297.548 317.304L297.538 317.314ZM428.817 298.017C428.745 292.943 427.071 288.624 423.804 285.071C420.537 281.498 416.075 279.66 410.408 279.578C404.936 279.65 400.494 281.487 397.125 285.071C393.705 288.634 391.99 292.943 391.99 298.017V330.771C391.99 332.394 392.796 333.211 394.43 333.211H398.095C399.729 333.211 400.535 332.394 400.535 330.771V313.199C400.535 311.515 401.362 310.678 402.996 310.678H417.79C419.424 310.678 420.251 311.515 420.251 313.199V330.771C420.251 332.394 421.057 333.211 422.691 333.211H426.356C427.99 333.211 428.796 332.394 428.796 330.771V298.017H428.817ZM420.261 300.743C420.261 302.408 419.434 303.245 417.8 303.245H403.006C401.373 303.245 400.546 302.408 400.546 300.743V297.997C400.546 295.22 401.413 292.81 403.118 290.768C404.834 288.706 407.274 287.644 410.398 287.573C413.533 287.644 415.973 288.706 417.678 290.768C419.393 292.81 420.251 295.22 420.251 297.997V300.743H420.261ZM560.096 321.061C560.096 317.6 559.596 314.813 558.575 312.75C557.513 310.78 556.308 309.32 554.899 308.36C553.98 307.523 553.98 306.737 554.899 305.971C555.808 305.419 556.88 304.368 558.105 302.775C559.351 301.182 560.004 298.834 560.086 295.71C560.014 290.584 558.299 286.603 554.971 283.805C551.438 280.987 547.017 279.578 541.667 279.578C536.184 279.65 531.753 281.487 528.384 285.071C524.964 288.634 523.248 292.943 523.248 298.017V330.771C523.248 332.394 524.055 333.211 525.689 333.211H529.364C530.998 333.211 531.804 332.394 531.804 330.771V313.199C531.804 311.515 532.631 310.678 534.265 310.678H541.667C544.802 310.749 547.242 311.811 548.947 313.863C550.662 315.905 551.52 318.315 551.52 321.051V330.76C551.52 332.384 552.326 333.201 553.96 333.201H557.635C559.269 333.201 560.076 332.384 560.076 330.76V321.051L560.096 321.061ZM551.54 295.689C551.387 298.834 550.141 300.856 547.752 301.785C545.424 302.847 543.392 303.316 541.677 303.245H534.275C532.641 303.245 531.814 302.408 531.814 300.743V297.997C531.814 295.22 532.682 292.81 534.387 290.768C536.103 288.706 538.543 287.644 541.667 287.573C544.434 287.573 546.762 288.216 548.62 289.523C550.488 290.87 551.448 292.933 551.52 295.689H551.54Z" fill="#FF6002"/>
<path fill-rule="evenodd" clip-rule="evenodd" d="M221.811 0C95.5037 10.894 0.255371 56.4302 0.255371 110.675C0.255371 173.007 125.95 223.832 280.058 223.832C434.167 223.832 559.861 172.997 559.861 110.675C559.861 56.4302 464.612 10.8838 338.306 0V5.21727C403.69 13.0585 450.594 42.606 450.594 66.7218C450.594 97.5353 373.989 122.672 280.068 122.672C186.147 122.672 109.542 97.5353 109.542 66.7218C109.542 42.6162 156.436 14.4266 221.831 6.5854V0H221.811Z" fill="#FF6002"/>
<path fill-rule="evenodd" clip-rule="evenodd" d="M255.524 13.3955C203.178 17.408 163.706 34.1931 163.706 54.1943C163.706 77.1666 215.797 95.9018 279.66 95.9018C343.523 95.9018 395.614 77.1666 395.614 54.1943C395.614 34.2033 356.143 17.4182 303.796 13.3955V18.6128C330.893 21.5022 350.333 29.1086 350.333 37.9912C350.333 49.3446 318.59 58.6152 279.66 58.6152C240.73 58.6152 208.987 49.3548 208.987 37.9912C208.987 29.1086 228.427 21.5022 255.524 18.6128V13.3955Z" fill="#FF6002"/>
<path fill-rule="evenodd" clip-rule="evenodd" d="M86.7437 331.057C86.7437 329.974 86.223 329.413 85.1918 329.372H82.8639C81.8327 329.413 81.312 329.974 81.312 331.057V332.649C81.312 333.711 81.8327 334.263 82.8639 334.303H85.1918C86.223 334.263 86.7437 333.711 86.7437 332.649V331.057Z" fill="#FF6002"/>
<path fill-rule="evenodd" clip-rule="evenodd" d="M217.727 330.985C217.727 329.903 217.206 329.341 216.175 329.3H213.847C212.816 329.341 212.295 329.903 212.295 330.985V332.578C212.295 333.639 212.816 334.191 213.847 334.232H216.175C217.206 334.191 217.727 333.639 217.727 332.578V330.985Z" fill="#FF6002"/>
<path fill-rule="evenodd" clip-rule="evenodd" d="M347.76 331.128C347.76 330.046 347.249 329.484 346.208 329.443H343.88C342.849 329.484 342.328 330.046 342.328 331.128V332.721C342.328 333.783 342.849 334.334 343.88 334.375H346.208C347.239 334.334 347.76 333.783 347.76 332.721V331.128Z" fill="#FF6002"/>
<path fill-rule="evenodd" clip-rule="evenodd" d="M477.916 331.016C477.916 329.933 477.395 329.372 476.364 329.331H474.036C473.005 329.372 472.484 329.933 472.484 331.016V332.608C472.484 333.67 473.005 334.222 474.036 334.262H476.364C477.395 334.222 477.916 333.67 477.916 332.608V331.016Z" fill="#FF6002"/>
</g>
<defs>
<clipPath id="clip0_1505_47595">
<rect width="560.106" height="500" fill="white"/>
</clipPath>
</defs>
</svg>